<svg id="visual" viewBox="0 0 960 300" width="960" height="300" xmlns="http://www.w3.org/2000/svg" xmlns:xlink="http://www.w3.org/1999/xlink" version="1.1"><rect x="0" y="0" width="960" height="300" fill="#8b5cf6"></rect><path d="M0 247L96 241L192 221L288 196L384 228L480 188L576 217L672 206L768 197L864 241L960 225L960 0L864 0L768 0L672 0L576 0L480 0L384 0L288 0L192 0L96 0L0 0Z" fill="#818cf8"></path><path d="M0 211L96 203L192 150L288 199L384 209L480 215L576 175L672 158L768 189L864 206L960 172L960 0L864 0L768 0L672 0L576 0L480 0L384 0L288 0L192 0L96 0L0 0Z" fill="#9c7eea"></path><path d="M0 152L96 184L192 172L288 175L384 190L480 156L576 161L672 132L768 165L864 135L960 132L960 0L864 0L768 0L672 0L576 0L480 0L384 0L288 0L192 0L96 0L0 0Z" fill="#b36ed9"></path><path d="M0 115L96 141L192 106L288 116L384 133L480 117L576 142L672 109L768 139L864 126L960 118L960 0L864 0L768 0L672 0L576 0L480 0L384 0L288 0L192 0L96 0L0 0Z" fill="#c45dc4"></path><path d="M0 103L96 112L192 72L288 92L384 79L480 79L576 97L672 72L768 87L864 72L960 82L960 0L864 0L768 0L672 0L576 0L480 0L384 0L288 0L192 0L96 0L0 0Z" fill="#d14bac"></path><path d="M0 60L96 79L192 63L288 59L384 88L480 81L576 61L672 62L768 69L864 77L960 49L960 0L864 0L768 0L672 0L576 0L480 0L384 0L288 0L192 0L96 0L0 0Z" fill="#d83992"></path><path d="M0 26L96 30L192 50L288 39L384 30L480 48L576 48L672 47L768 51L864 19L960 20L960 0L864 0L768 0L672 0L576 0L480 0L384 0L288 0L192 0L96 0L0 0Z" fill="#db2777"></path></svg>