<svg id="visual" viewBox="0 0 900 300" width="900" height="300" xmlns="http://www.w3.org/2000/svg" xmlns:xlink="http://www.w3.org/1999/xlink" version="1.1"><rect x="0" y="0" width="900" height="300" fill="#082f49"></rect><path d="M0 185L90 177L180 144L270 135L360 176L450 178L540 160L630 203L720 159L810 131L900 194L900 0L810 0L720 0L630 0L540 0L450 0L360 0L270 0L180 0L90 0L0 0Z" fill="#0284c7"></path><path d="M0 134L90 142L180 113L270 128L360 172L450 169L540 129L630 102L720 140L810 128L900 152L900 0L810 0L720 0L630 0L540 0L450 0L360 0L270 0L180 0L90 0L0 0Z" fill="#457ccd"></path><path d="M0 101L90 111L180 140L270 104L360 107L450 138L540 139L630 108L720 85L810 102L900 144L900 0L810 0L720 0L630 0L540 0L450 0L360 0L270 0L180 0L90 0L0 0Z" fill="#6f72cc"></path><path d="M0 118L90 72L180 74L270 127L360 89L450 126L540 76L630 108L720 96L810 103L900 78L900 0L810 0L720 0L630 0L540 0L450 0L360 0L270 0L180 0L90 0L0 0Z" fill="#9464c3"></path><path d="M0 87L90 86L180 99L270 63L360 63L450 91L540 68L630 77L720 93L810 54L900 75L900 0L810 0L720 0L630 0L540 0L450 0L360 0L270 0L180 0L90 0L0 0Z" fill="#b352b1"></path><path d="M0 52L90 36L180 32L270 42L360 55L450 58L540 50L630 59L720 51L810 51L900 61L900 0L810 0L720 0L630 0L540 0L450 0L360 0L270 0L180 0L90 0L0 0Z" fill="#cb3d97"></path><path d="M0 22L90 16L180 26L270 34L360 36L450 30L540 31L630 15L720 18L810 24L900 22L900 0L810 0L720 0L630 0L540 0L450 0L360 0L270 0L180 0L90 0L0 0Z" fill="#db2777"></path></svg>