<svg id="visual" viewBox="0 0 900 100" width="900" height="100" xmlns="http://www.w3.org/2000/svg" xmlns:xlink="http://www.w3.org/1999/xlink" version="1.1"><rect x="0" y="0" width="900" height="100" fill="#082f49"></rect><path d="M0 49L13.7 44.3C27.3 39.7 54.7 30.3 82 30.2C109.3 30 136.7 39 163.8 43.7C191 48.3 218 48.7 245.2 54.5C272.3 60.3 299.7 71.7 327 69.7C354.3 67.7 381.7 52.3 409 47.2C436.3 42 463.7 47 491 49.2C518.3 51.3 545.7 50.7 573 46.5C600.3 42.3 627.7 34.7 654.8 38.5C682 42.3 709 57.7 736.2 61C763.3 64.3 790.7 55.7 818 47.5C845.3 39.3 872.7 31.7 886.3 27.8L900 24" fill="none" stroke-linecap="round" stroke-linejoin="miter" stroke="#db2777" stroke-width="12"></path></svg>