<svg id="visual" viewBox="0 0 960 300" width="960" height="300" xmlns="http://www.w3.org/2000/svg" xmlns:xlink="http://www.w3.org/1999/xlink" version="1.1"><rect x="0" y="0" width="960" height="300" fill="#0e7490"></rect><path d="M0 115L96 67L192 104L288 61L384 69L480 62L576 49L672 77L768 84L864 60L960 61L960 301L864 301L768 301L672 301L576 301L480 301L384 301L288 301L192 301L96 301L0 301Z" fill="#083344"></path><path d="M0 100L96 87L192 79L288 146L384 85L480 107L576 108L672 95L768 115L864 137L960 142L960 301L864 301L768 301L672 301L576 301L480 301L384 301L288 301L192 301L96 301L0 301Z" fill="#003d60"></path><path d="M0 121L96 121L192 166L288 111L384 158L480 175L576 154L672 142L768 134L864 155L960 152L960 301L864 301L768 301L672 301L576 301L480 301L384 301L288 301L192 301L96 301L0 301Z" fill="#25447a"></path><path d="M0 185L96 184L192 174L288 193L384 201L480 145L576 173L672 152L768 184L864 170L960 201L960 301L864 301L768 301L672 301L576 301L480 301L384 301L288 301L192 301L96 301L0 301Z" fill="#53468c"></path><path d="M0 194L96 221L192 197L288 195L384 208L480 223L576 221L672 187L768 219L864 197L960 178L960 301L864 301L768 301L672 301L576 301L480 301L384 301L288 301L192 301L96 301L0 301Z" fill="#844193"></path><path d="M0 218L96 252L192 234L288 225L384 242L480 227L576 226L672 229L768 235L864 227L960 214L960 301L864 301L768 301L672 301L576 301L480 301L384 301L288 301L192 301L96 301L0 301Z" fill="#b3368b"></path><path d="M0 244L96 264L192 266L288 261L384 252L480 260L576 243L672 261L768 263L864 265L960 252L960 301L864 301L768 301L672 301L576 301L480 301L384 301L288 301L192 301L96 301L0 301Z" fill="#db2777"></path></svg>