<svg id="visual" viewBox="0 0 960 300" width="960" height="300" xmlns="http://www.w3.org/2000/svg" xmlns:xlink="http://www.w3.org/1999/xlink" version="1.1"><rect x="0" y="0" width="960" height="300" fill="#0e7490"></rect><path d="M0 188L96 204L192 202L288 183L384 183L480 179L576 203L672 207L768 177L864 204L960 180L960 301L864 301L768 301L672 301L576 301L480 301L384 301L288 301L192 301L96 301L0 301Z" fill="#083344"></path><path d="M0 193L96 216L192 219L288 221L384 196L480 210L576 187L672 197L768 188L864 190L960 201L960 301L864 301L768 301L672 301L576 301L480 301L384 301L288 301L192 301L96 301L0 301Z" fill="#003d60"></path><path d="M0 210L96 237L192 215L288 229L384 215L480 204L576 210L672 206L768 236L864 220L960 221L960 301L864 301L768 301L672 301L576 301L480 301L384 301L288 301L192 301L96 301L0 301Z" fill="#25447a"></path><path d="M0 249L96 241L192 237L288 241L384 241L480 226L576 244L672 249L768 238L864 234L960 244L960 301L864 301L768 301L672 301L576 301L480 301L384 301L288 301L192 301L96 301L0 301Z" fill="#53468c"></path><path d="M0 251L96 252L192 242L288 244L384 242L480 246L576 239L672 261L768 252L864 242L960 252L960 301L864 301L768 301L672 301L576 301L480 301L384 301L288 301L192 301L96 301L0 301Z" fill="#844193"></path><path d="M0 276L96 267L192 270L288 275L384 276L480 259L576 267L672 274L768 257L864 275L960 261L960 301L864 301L768 301L672 301L576 301L480 301L384 301L288 301L192 301L96 301L0 301Z" fill="#b3368b"></path><path d="M0 272L96 271L192 286L288 278L384 273L480 283L576 278L672 279L768 281L864 279L960 285L960 301L864 301L768 301L672 301L576 301L480 301L384 301L288 301L192 301L96 301L0 301Z" fill="#db2777"></path></svg>