<svg id="visual" viewBox="0 0 900 100" width="900" height="100" xmlns="http://www.w3.org/2000/svg" xmlns:xlink="http://www.w3.org/1999/xlink" version="1.1"><rect x="0" y="0" width="900" height="100" fill="#082f49"></rect><path d="M0 39L10.7 34.3C21.3 29.7 42.7 20.3 64.2 24.5C85.7 28.7 107.3 46.3 128.8 52.3C150.3 58.3 171.7 52.7 193 43.7C214.3 34.7 235.7 22.3 257 27.8C278.3 33.3 299.7 56.7 321.2 67.7C342.7 78.7 364.3 77.3 385.8 75.7C407.3 74 428.7 72 450 73C471.3 74 492.7 78 514.2 69.7C535.7 61.3 557.3 40.7 578.8 37.2C600.3 33.7 621.7 47.3 643 54.2C664.3 61 685.7 61 707 56.2C728.3 51.3 749.7 41.7 771.2 34.5C792.7 27.3 814.3 22.7 835.8 23.3C857.3 24 878.7 30 889.3 33L900 36" fill="none" stroke-linecap="round" stroke-linejoin="miter" stroke="#db2777" stroke-width="12"></path></svg>