<svg id="visual" viewBox="0 0 900 300" width="900" height="300" xmlns="http://www.w3.org/2000/svg" xmlns:xlink="http://www.w3.org/1999/xlink" version="1.1"><rect x="0" y="0" width="900" height="300" fill="#082f49"></rect><path d="M0 81L10.7 85.7C21.3 90.3 42.7 99.7 64.2 106.7C85.7 113.7 107.3 118.3 128.8 135.7C150.3 153 171.7 183 193 184.8C214.3 186.7 235.7 160.3 257 149.3C278.3 138.3 299.7 142.7 321.2 130.2C342.7 117.7 364.3 88.3 385.8 78.8C407.3 69.3 428.7 79.7 450 98.2C471.3 116.7 492.7 143.3 514.2 157.3C535.7 171.3 557.3 172.7 578.8 178C600.3 183.3 621.7 192.7 643 199.3C664.3 206 685.7 210 707 202.8C728.3 195.7 749.7 177.3 771.2 154.5C792.7 131.7 814.3 104.3 835.8 89.7C857.3 75 878.7 73 889.3 72L900 71" fill="none" stroke-linecap="round" stroke-linejoin="miter" stroke="#b12dcf" stroke-width="40"></path></svg>