<svg id="visual" viewBox="0 0 900 100" width="900" height="100" xmlns="http://www.w3.org/2000/svg" xmlns:xlink="http://www.w3.org/1999/xlink" version="1.1"><rect x="0" y="0" width="900" height="100" fill="#082f49"></rect><path d="M0 10L10.7 14.5C21.3 19 42.7 28 64.2 33.8C85.7 39.7 107.3 42.3 128.8 41C150.3 39.7 171.7 34.3 193 40C214.3 45.7 235.7 62.3 257 70.3C278.3 78.3 299.7 77.7 321.2 67.7C342.7 57.7 364.3 38.3 385.8 31.3C407.3 24.3 428.7 29.7 450 39.2C471.3 48.7 492.7 62.3 514.2 60.7C535.7 59 557.3 42 578.8 42C600.3 42 621.7 59 643 67.3C664.3 75.7 685.7 75.3 707 75C728.3 74.7 749.7 74.3 771.2 65.8C792.7 57.3 814.3 40.7 835.8 37.8C857.3 35 878.7 46 889.3 51.5L900 57" fill="none" stroke-linecap="round" stroke-linejoin="miter" stroke="#db2777" stroke-width="12"></path></svg>